<svg width="512" height="512" viewBox="0 0 512 512" xmlns="http://www.w3.org/2000/svg">
  <!-- Dark background -->
  <rect width="512" height="512" fill="#0A0A0A" rx="80"/>
  
  <!-- Italic mathematical 'f' - centered and properly scaled -->
  <g transform="translate(120, 50) scale(0.65)">
    <path d="M75.725 638C53.85 638 35.85 631.95 21.725 619.85C7.57501 607.725 0.5 591.8 0.5 572.075C0.5 558.325 4.0125 547.287 11.0375 538.962C18.0625 530.612 27.0625 526.438 38.0375 526.438C48.3625 526.438 57.1875 530.062 64.5125 537.312C71.8625 544.562 75.5375 553.3 75.5375 563.525C75.5375 570.475 73.45 576.525 69.275 581.675C65.125 586.825 60.0875 590 54.1625 591.2C56.5625 593.6 59.9375 595.65 64.2875 597.35C68.6125 599.025 73.4125 599.862 78.6875 599.862C91.9125 599.712 102.625 593.9 110.825 582.425C119 570.975 125.637 552.887 130.737 528.162L189.65 225.5H97.1375C91.8125 225.5 87.35 223.713 83.75 220.138C80.15 216.563 78.375 212.1 78.425 206.75C78.475 201.4 80.275 196.937 83.825 193.362C87.375 189.787 91.825 188 97.175 188H196.512L214.737 89.75C220.087 60.75 230.125 38.625 244.85 23.375C259.575 8.12501 278.387 0.5 301.287 0.5C323.012 0.5 340.937 6.825 355.062 19.475C369.187 32.1 376.25 48.2 376.25 67.775C376.25 81.25 372.75 92.15 365.75 100.475C358.725 108.825 349.725 113 338.75 113C328.425 113 319.6 109.5 312.275 102.5C304.925 95.475 301.25 86.7875 301.25 76.4375C301.25 69.4625 303.337 63.4 307.512 58.25C311.662 53.1 316.937 49.925 323.337 48.725C320.937 45.85 317.212 43.45 312.162 41.525C307.112 39.6 301.95 38.6375 296.675 38.6375C284.75 38.9375 275.087 43.9375 267.687 53.6375C260.262 63.3625 254.725 77.7 251.075 96.65L235.1 188H382.737C388.062 188 392.525 189.787 396.125 193.362C399.725 196.937 401.512 201.4 401.487 206.75C401.487 211.8 399.837 216.075 396.537 219.575C393.237 223.075 389.137 224.975 384.237 225.275L227.562 225.5L167.562 532.85C160.637 568.675 149.675 595.15 134.675 612.275C119.675 629.425 100.05 638 75.8 638" fill="#FFFFFF"/>
  </g>
</svg>